<?xml version="1.0" encoding="UTF-8" standalone="no"?>
<!-- Created with Inkscape (http://www.inkscape.org/) -->

<svg
   xmlns:dc="http://purl.org/dc/elements/1.1/"
   xmlns:cc="http://creativecommons.org/ns#"
   xmlns:rdf="http://www.w3.org/1999/02/22-rdf-syntax-ns#"
   xmlns:svg="http://www.w3.org/2000/svg"
   xmlns="http://www.w3.org/2000/svg"
   xmlns:sodipodi="http://sodipodi.sourceforge.net/DTD/sodipodi-0.dtd"
   xmlns:inkscape="http://www.inkscape.org/namespaces/inkscape"
   width="210mm"
   height="297mm"
   viewBox="0 0 744.09448819 1052.3622047"
   id="svg2"
   version="1.1"
   inkscape:version="0.91 r13725"
   sodipodi:docname="AuraLogo.svg">
  <defs
     id="defs4" />
  <sodipodi:namedview
     id="base"
     pagecolor="#ffffff"
     bordercolor="#666666"
     borderopacity="1.0"
     inkscape:pageopacity="0.0"
     inkscape:pageshadow="2"
     inkscape:zoom="4.9169349"
     inkscape:cx="225.06718"
     inkscape:cy="688.79187"
     inkscape:document-units="px"
     inkscape:current-layer="layer1"
     showgrid="false"
     inkscape:window-width="1873"
     inkscape:window-height="1056"
     inkscape:window-x="47"
     inkscape:window-y="24"
     inkscape:window-maximized="1" />
  <metadata
     id="metadata7">
    <rdf:RDF>
      <cc:Work
         rdf:about="">
        <dc:format>image/svg+xml</dc:format>
        <dc:type
           rdf:resource="http://purl.org/dc/dcmitype/StillImage" />
        <dc:title></dc:title>
      </cc:Work>
    </rdf:RDF>
  </metadata>
  <g
     inkscape:label="Layer 1"
     inkscape:groupmode="layer"
     id="layer1">
    <text
       xml:space="preserve"
       style="font-style:normal;font-weight:normal;font-size:40px;line-height:125%;font-family:'URW Gothic L';letter-spacing:0px;word-spacing:0px;fill:#000000;fill-opacity:1;stroke:none;stroke-width:1px;stroke-linecap:butt;stroke-linejoin:miter;stroke-opacity:1;-inkscape-font-specification:'URW Gothic L';font-stretch:normal;font-variant:normal;"
       x="171"
       y="364.36221"
       id="text3336"
       sodipodi:linespacing="125%"><tspan
         sodipodi:role="line"
         id="tspan3338"
         x="171"
         y="364.36221">aura</tspan></text>
    <path
       id="path3390"
       d="m 224.469,395.25036 c 0.0138,-0.86202 0.0162,-1.72288 0.069,-2.58357 0.10516,-0.72621 0.10437,-0.92803 0.33663,-1.64496 0.46754,-1.44324 1.28002,-2.74118 2.06786,-4.02443 0.72469,-1.12942 1.53093,-2.20436 2.42932,-3.20178 1.01371,-1.12545 2.12764,-2.15162 3.23615,-3.1811 2.52175,-2.28817 5.27084,-4.30486 8.0522,-6.26199 1.91468,-1.27901 3.85391,-2.56142 5.96353,-3.50143 0.96618,-0.43051 1.493,-0.59117 2.4887,-0.93861 2.12888,-0.70375 4.3389,-1.09456 6.55737,-1.37906 1.45739,-0.17061 2.92419,-0.22899 4.39011,-0.26145 0.5724,-0.0105 1.14491,-0.0129 1.71739,-0.0126 0.16927,3e-5 0.33856,3.7e-4 0.50783,-0.001 0.0547,-1.8e-4 0.10935,2e-5 0.16402,-1.5e-4 0,0 -1.22951,0.89324 -1.22951,0.89324 l 0,0 c -0.0547,-2e-4 -0.10945,-2e-5 -0.16418,-6.5e-4 -0.16488,-0.003 -0.32976,-0.006 -0.49465,-0.009 -0.55842,-0.009 -1.1169,-0.0177 -1.67543,-0.0134 -1.44571,0.0146 -2.89232,0.068 -4.32938,0.23632 -2.20017,0.28162 -4.39225,0.66875 -6.50173,1.37278 -1.00784,0.35665 -1.49923,0.5066 -2.47626,0.94886 -0.40825,0.1848 -0.80255,0.39903 -1.20562,0.59488 -0.0135,0.007 -0.0306,0.004 -0.0434,0.012 -0.40083,0.24541 -0.80074,0.49244 -1.19596,0.74678 -0.42493,0.27346 -0.84284,0.55766 -1.26426,0.83649 -2.78377,1.94612 -5.53226,3.95638 -8.05054,6.24212 -1.10175,1.02261 -2.20981,2.04189 -3.21981,3.15758 -0.89532,0.98901 -1.69825,2.05564 -2.42185,3.17586 -0.91695,1.49534 -1.89923,3.0494 -2.25374,4.79509 -0.0521,0.25634 -0.0715,0.51825 -0.10723,0.77737 -0.0102,0.22591 -0.0262,0.45163 -0.0305,0.67772 -0.0118,0.62096 0.0257,1.2432 0.0265,1.86422 0,0 -1.34252,0.68405 -1.34252,0.68405 z"
       inkscape:connector-curvature="0" />
    <path
       id="path3392"
       d="m 232.18829,389.10809 c 0.98371,-0.0319 1.94872,0.13471 2.90871,0.3288 1.67973,0.37799 3.31932,0.90717 4.96168,1.41843 1.61461,0.51629 3.24052,0.99508 4.85429,1.51393 1.13749,0.39894 2.27825,0.79105 3.4004,1.23185 0.4027,0.14247 0.79325,0.31003 1.17895,0.49204 0.16797,0.0935 0.36587,0.11977 0.53455,0.20688 0.14613,0.0713 0.30189,0.11806 0.45138,0.18117 0.14842,0.0668 0.29404,0.14457 0.41942,0.2487 0.0644,0.0385 0.0325,0.0149 0.0936,0.0735 0,0 -1.28883,0.80084 -1.28883,0.80084 l 0,0 c -0.0544,-0.0428 -0.0248,-0.0201 -0.0893,-0.0676 -0.11767,-0.0903 -0.25405,-0.1563 -0.39046,-0.213 -0.15501,-0.0559 -0.30851,-0.11591 -0.45798,-0.18554 -0.17959,-0.066 -0.36066,-0.12751 -0.53183,-0.21454 -0.37108,-0.18736 -0.75176,-0.35202 -1.13762,-0.5068 -1.10273,-0.45602 -2.22867,-0.85404 -3.35364,-1.25113 -1.60888,-0.52248 -3.229,-1.00827 -4.84098,-1.52109 -1.64373,-0.51031 -3.28543,-1.04063 -4.97258,-1.39197 -0.97795,-0.18057 -1.96101,-0.32378 -2.95873,-0.2588 0,0 1.21898,-0.88564 1.21898,-0.88564 z"
       inkscape:connector-curvature="0" />
    <path
       id="path3394"
       d="m 237.45318,381.48039 c 0.46564,0.0265 0.88107,0.26545 1.27454,0.4957 0.41438,0.24248 0.59603,0.37028 1.00286,0.6383 1.04909,0.74411 2.1588,1.39196 3.28947,2.00239 0.91197,0.46044 1.8517,0.86295 2.80904,1.21867 0.64439,0.2178 1.24342,0.52768 1.81267,0.89636 0.48314,0.30602 0.92264,0.67335 1.37513,1.02151 0.34301,0.28963 0.69207,0.57403 1.05893,0.83311 0.19062,0.15254 0.40676,0.28164 0.57737,0.45763 0.12132,0.0989 0.22411,0.22278 0.35553,0.30842 0.0742,0.0926 0.19407,0.11982 0.28279,0.18711 0.0231,0.0494 0.0831,0.0469 0.11792,0.073 0.1781,0.13344 -0.0629,-0.0243 0.0669,0.0588 0.0741,0.0569 0.14012,0.13828 0.18565,0.22042 0,0 -1.31572,0.75704 -1.31572,0.75704 l 0,0 c -0.0364,-0.0645 -0.0926,-0.1202 -0.15279,-0.16284 -0.0569,-0.0448 -0.12413,-0.0762 -0.17924,-0.12504 -0.10516,-0.0498 -0.19625,-0.12273 -0.2852,-0.1969 -0.12818,-0.10239 -0.2447,-0.21898 -0.36587,-0.32945 -0.17029,-0.16371 -0.36876,-0.29877 -0.5539,-0.44457 -0.35962,-0.26932 -0.70907,-0.55228 -1.05146,-0.84314 -0.44639,-0.3481 -0.88371,-0.71012 -1.36235,-1.01412 -0.56218,-0.35778 -1.15495,-0.65612 -1.78447,-0.87849 -0.95096,-0.37245 -1.88786,-0.7802 -2.79456,-1.25144 -1.13078,-0.61787 -2.24104,-1.27063 -3.29707,-2.01085 -0.39944,-0.25532 -0.59982,-0.39374 -1.01095,-0.61764 -0.39652,-0.21594 -0.8145,-0.42077 -1.27692,-0.4064 0,0 1.22172,-0.88763 1.22172,-0.88763 z"
       inkscape:connector-curvature="0" />
    <path
       id="path3396"
       d="m 245.78841,377.2983 c 0.0578,0.13495 0.10934,0.27278 0.17349,0.40484 0.65481,1.34797 1.55923,2.5734 2.41763,3.79503 1.15634,1.62301 2.36541,3.20746 3.59816,4.77291 0.5705,0.66278 1.07696,1.37847 1.64466,2.0431 0.1499,0.13413 0.26129,0.30906 0.40459,0.44782 0.0675,0.0336 0.0763,0.12663 0.14563,0.14734 0.0145,0.005 0.0293,0.007 0.0443,0.007 0,0 -1.26113,0.85441 -1.26113,0.85441 l 0,0 c -0.0217,-0.0119 -0.0433,-0.024 -0.063,-0.0392 -0.0634,-0.0537 -0.0985,-0.12763 -0.16198,-0.18168 -0.13273,-0.15314 -0.25542,-0.31571 -0.38983,-0.46795 -0.54042,-0.68447 -1.0189,-1.41693 -1.57627,-2.08893 -1.20476,-1.58795 -2.40591,-3.17888 -3.57297,-4.79487 -0.96105,-1.35513 -1.94738,-2.70647 -2.71577,-4.18342 0,0 1.31243,-0.71672 1.31243,-0.71672 z"
       inkscape:connector-curvature="0" />
    <path
       id="path3398"
       d="m 254.32937,372.33269 c 0.36787,0.82845 0.69318,1.67325 0.97817,2.5335 0.32825,1.00106 0.61595,2.01434 0.91462,3.02436 0.17239,0.54912 0.36457,1.09155 0.54352,1.6385 0.11734,0.322 0.23295,0.64389 0.3342,0.97153 0.0827,0.26693 0.14187,0.54049 0.23176,0.80511 0.16897,0.50075 0.32287,1.0064 0.46302,1.51593 0.11859,0.46463 0.26532,0.92191 0.37809,1.388 0.0309,0.2174 0.0922,0.42791 0.137,0.64237 0.028,0.12781 0.0388,0.2582 0.0465,0.38851 4.4e-4,0.0159 8.8e-4,0.0319 0.001,0.0478 0,0 -1.35213,0.69188 -1.35213,0.69188 l 0,0 c -10e-5,-0.0151 -1.9e-4,-0.0302 -2.9e-4,-0.0453 -0.001,-0.1238 -0.008,-0.2478 -0.0298,-0.36985 -0.0398,-0.21525 -0.1052,-0.42476 -0.12559,-0.6437 -0.099,-0.46878 -0.23858,-0.92805 -0.35643,-1.39221 -0.13747,-0.50521 -0.2976,-1.00399 -0.47919,-1.49515 -0.0957,-0.26519 -0.15375,-0.54134 -0.23325,-0.81159 -0.0978,-0.32853 -0.2128,-0.65044 -0.32774,-0.97311 -0.16878,-0.55382 -0.35239,-1.10303 -0.51299,-1.6594 -0.28539,-1.01265 -0.57185,-2.02491 -0.90496,-3.02325 -0.28219,-0.85314 -0.59616,-1.69773 -1.01635,-2.4941 0,0 1.31053,-0.73979 1.31053,-0.73979 z"
       inkscape:connector-curvature="0" />
    <circle
       id="path3400"
       cx="282.59476"
       cy="352.23093"
       r="16.473677" />
    <text
       xml:space="preserve"
       style="font-style:normal;font-variant:normal;font-weight:normal;font-stretch:normal;font-size:40px;line-height:125%;font-family:'URW Gothic L';-inkscape-font-specification:'URW Gothic L';letter-spacing:0px;word-spacing:0px;fill:#000000;fill-opacity:1;stroke:none;stroke-width:1px;stroke-linecap:butt;stroke-linejoin:miter;stroke-opacity:1"
       x="82.239159"
       y="324.02048"
       id="text3336-3"
       sodipodi:linespacing="125%"><tspan
         sodipodi:role="line"
         id="tspan3338-6"
         x="82.239159"
         y="324.02048">halo</tspan></text>
  </g>
</svg>
