<?xml version="1.0" encoding="UTF-8" standalone="no"?>
<!-- Created with Inkscape (http://www.inkscape.org/) -->

<svg
   xmlns:dc="http://purl.org/dc/elements/1.1/"
   xmlns:cc="http://creativecommons.org/ns#"
   xmlns:rdf="http://www.w3.org/1999/02/22-rdf-syntax-ns#"
   xmlns:svg="http://www.w3.org/2000/svg"
   xmlns="http://www.w3.org/2000/svg"
   xmlns:sodipodi="http://sodipodi.sourceforge.net/DTD/sodipodi-0.dtd"
   xmlns:inkscape="http://www.inkscape.org/namespaces/inkscape"
   width="210mm"
   height="297mm"
   id="svg3460"
   version="1.1"
   inkscape:version="0.48.4 r9939"
   sodipodi:docname="ReactorLogo.dxf"
   inkscape:export-filename="/home/steve/BlockWorks/Media/ReactorLogo.png"
   inkscape:export-xdpi="90"
   inkscape:export-ydpi="90">
  <sodipodi:namedview
     inkscape:document-units="mm"
     id="base"
     pagecolor="#ffffff"
     bordercolor="#666666"
     borderopacity="1.0"
     inkscape:pageopacity="0.0"
     inkscape:pageshadow="2"
     inkscape:zoom="1.979899"
     inkscape:cx="439.24234"
     inkscape:cy="566.17005"
     inkscape:current-layer="layer1"
     showgrid="false"
     inkscape:window-width="1920"
     inkscape:window-height="1056"
     inkscape:window-x="0"
     inkscape:window-y="24"
     inkscape:window-maximized="1" />
  <defs
     id="defs3" />
  <metadata
     id="metadata4">
    <rdf:RDF>
      <cc:Work
         rdf:about="">
        <dc:format>image/svg+xml</dc:format>
        <dc:type
           rdf:resource="http://purl.org/dc/dcmitype/StillImage" />
        <dc:title></dc:title>
      </cc:Work>
    </rdf:RDF>
  </metadata>
  <g
     id="layer1"
     inkscape:groupmode="layer"
     inkscape:label="Layer 1">
    <path
       inkscape:connector-curvature="0"
       d="m 254.08287,493.3797 c -0.015,11.7895 9.5677,21.3723 21.3723,21.3723 l 23.9721,0 -54.7458,54.74579 c -8.3433,8.3433 -8.3509,21.87862 0,30.22954 8.3434,8.34335 21.8863,8.34331 30.2296,2e-5 l 54.7457,-54.74576 0,23.97204 c -0.015,11.7895 9.5677,21.37227 21.3723,21.3723 5.9099,10e-6 11.2454,-2.38816 15.1148,-6.25752 3.8694,-3.86936 6.2575,-9.20492 6.2575,-15.11478 l 0,-96.94623 -96.9462,0 c -11.8046,0 -21.3723,9.5676 -21.3723,21.3723 z"
       id="path4265-8" />
    <path
       inkscape:connector-curvature="0"
       d="m 514.17117,494.0984 c 0.015,11.7895 -9.5677,21.3722 -21.3723,21.3723 l -23.9721,0 54.7458,54.74573 c 8.3433,8.3433 8.3509,21.87862 0,30.22954 -8.3434,8.34335 -21.8863,8.34331 -30.2296,2e-5 l -54.7457,-54.74576 0,23.97204 c 0.015,11.7895 -9.5677,21.37227 -21.3723,21.3723 -5.9099,10e-6 -11.2454,-2.38816 -15.1148,-6.25752 -3.8694,-3.86936 -6.2575,-9.20492 -6.2575,-15.11478 l 0,-96.94617 96.9462,0 c 11.8046,-10e-5 21.3723,9.5676 21.3723,21.3723 z"
       id="path4265-0-3" />
    <path
       inkscape:connector-curvature="0"
       d="m 403.42257,346.3605 c -0.015,11.7895 9.5677,21.3722 21.3723,21.3723 l 23.9721,0 -54.7458,54.7457 c -8.3433,8.3433 -8.3509,21.8786 0,30.2296 8.3434,8.3433 21.8863,8.3433 30.2296,0 l 54.7457,-54.7458 0,23.9721 c -0.015,11.7895 9.5677,21.3722 21.3723,21.3723 5.9099,0 11.2454,-2.3882 15.1148,-6.2576 3.8694,-3.8693 6.2575,-9.2049 6.2575,-15.1147 l 0,-96.9462 -96.9462,0 c -11.8046,-1e-4 -21.3723,9.5676 -21.3723,21.3723 z"
       id="path4265-0-6-6" />
    <path
       inkscape:connector-curvature="0"
       d="m 255.58327,430.2158 c -0.015,-11.7895 9.5677,-21.3722 21.3723,-21.3723 l 23.9721,0 -54.7458,-54.7457 c -8.3433,-8.3433 -8.3509,-21.8787 0,-30.2296 8.3434,-8.3433 21.8863,-8.3433 30.2296,0 l 54.7457,54.7458 0,-23.9721 c -0.015,-11.7895 9.5677,-21.3722 21.3723,-21.3723 5.9099,0 11.2454,2.3882 15.1148,6.2575 3.8694,3.8694 6.2575,9.205 6.2575,15.1148 l 0,96.9462 -96.9462,0 c -11.8046,10e-5 -21.3723,-9.5676 -21.3723,-21.3723 z"
       id="path4265-0-9-8" />
    <text
       xml:space="preserve"
       style="font-size:85px;font-style:normal;font-variant:normal;font-weight:600;font-stretch:normal;line-height:125%;letter-spacing:0px;word-spacing:0px;fill:#000000;fill-opacity:1;stroke:none;font-family:URW Gothic L;-inkscape-font-specification:URW Gothic L Semi-Bold"
       x="232.33508"
       y="664.96869"
       id="text3883"
       sodipodi:linespacing="125%"><tspan
         sodipodi:role="line"
         id="tspan3885"
         x="232.33508"
         y="664.96869"
         style="font-size:85px;font-style:normal;font-variant:normal;font-weight:600;font-stretch:normal;font-family:URW Gothic L;-inkscape-font-specification:URW Gothic L Semi-Bold">reactor</tspan></text>
  </g>
</svg>
