  0
SECTION
  2
HEADER
  9
$ACADVER
  1
AC1009
  9
$EXTMIN
 10
0.0
 20
0.0
 30
0.0
  9
$EXTMAX
 10
1000.0
 20
1000.0
 30
0.0
  9
$FILLMODE
 70
 0
  9
$SPLFRAME
 70
 1
  0
ENDSEC
  0
SECTION
  2
TABLES
  0
TABLE
  2
LAYER
 70
1
  0
LAYER
  2
0
 70
     0
 62
     7
  6
CONTINUOUS
  0
ENDTAB
  0
ENDSEC
  0
SECTION
  2
ENTITIES
  0
LINE
  8
0
 62
     0
 10
2.82314
 20
6.21094
 30
0.0
 11
2.82308
 21
6.18788
 31
0.0
  0
LINE
  8
0
 62
     0
 10
2.82308
 20
6.18788
 30
0.0
 11
2.84169
 21
6.1186
 31
0.0
  0
LINE
  8
0
 62
     0
 10
2.84169
 20
6.1186
 30
0.0
 11
2.89264
 21
6.04308
 31
0.0
  0
LINE
  8
0
 62
     0
 10
2.89264
 20
6.04308
 30
0.0
 11
2.96815
 21
5.99219
 31
0.0
  0
LINE
  8
0
 62
     0
 10
2.96815
 20
5.99219
 30
0.0
 11
3.03749
 21
5.97347
 31
0.0
  0
LINE
  8
0
 62
     0
 10
3.03749
 20
5.97347
 30
0.0
 11
3.0606
 21
5.97347
 31
0.0
  0
LINE
  8
0
 62
     0
 10
3.0606
 20
5.97347
 30
0.0
 11
3.32699
 21
5.97347
 31
0.0
  0
LINE
  8
0
 62
     0
 10
3.32699
 20
5.97347
 30
0.0
 11
2.71869
 21
5.36518
 31
0.0
  0
LINE
  8
0
 62
     0
 10
2.71869
 20
5.36518
 30
0.0
 11
2.70236
 21
5.34885
 31
0.0
  0
LINE
  8
0
 62
     0
 10
2.70236
 20
5.34885
 30
0.0
 11
2.6665
 21
5.28668
 31
0.0
  0
LINE
  8
0
 62
     0
 10
2.6665
 20
5.28668
 30
0.0
 11
2.64908
 21
5.19726
 31
0.0
  0
LINE
  8
0
 62
     0
 10
2.64908
 20
5.19726
 30
0.0
 11
2.6665
 21
5.10792
 31
0.0
  0
LINE
  8
0
 62
     0
 10
2.6665
 20
5.10792
 30
0.0
 11
2.70231
 21
5.04568
 31
0.0
  0
LINE
  8
0
 62
     0
 10
2.70231
 20
5.04568
 30
0.0
 11
2.71869
 21
5.02929
 31
0.0
  0
LINE
  8
0
 62
     0
 10
2.71869
 20
5.02929
 30
0.0
 11
2.73497
 21
5.01297
 31
0.0
  0
LINE
  8
0
 62
     0
 10
2.73497
 20
5.01297
 30
0.0
 11
2.79719
 21
4.97715
 31
0.0
  0
LINE
  8
0
 62
     0
 10
2.79719
 20
4.97715
 30
0.0
 11
2.88661
 21
4.95979
 31
0.0
  0
LINE
  8
0
 62
     0
 10
2.88661
 20
4.95979
 30
0.0
 11
2.97597
 21
4.97715
 31
0.0
  0
LINE
  8
0
 62
     0
 10
2.97597
 20
4.97715
 30
0.0
 11
3.03819
 21
5.01297
 31
0.0
  0
LINE
  8
0
 62
     0
 10
3.03819
 20
5.01297
 30
0.0
 11
3.05458
 21
5.02929
 31
0.0
  0
LINE
  8
0
 62
     0
 10
3.05458
 20
5.02929
 30
0.0
 11
3.66287
 21
5.63758
 31
0.0
  0
LINE
  8
0
 62
     0
 10
3.66287
 20
5.63758
 30
0.0
 11
3.66287
 21
5.37121
 31
0.0
  0
LINE
  8
0
 62
     0
 10
3.66287
 20
5.37121
 30
0.0
 11
3.66282
 21
5.34814
 31
0.0
  0
LINE
  8
0
 62
     0
 10
3.66282
 20
5.34814
 30
0.0
 11
3.68143
 21
5.27886
 31
0.0
  0
LINE
  8
0
 62
     0
 10
3.68143
 20
5.27886
 30
0.0
 11
3.73232
 21
5.2034
 31
0.0
  0
LINE
  8
0
 62
     0
 10
3.73232
 20
5.2034
 30
0.0
 11
3.80783
 21
5.15246
 31
0.0
  0
LINE
  8
0
 62
     0
 10
3.80783
 20
5.15246
 30
0.0
 11
3.87717
 21
5.13374
 31
0.0
  0
LINE
  8
0
 62
     0
 10
3.87717
 20
5.13374
 30
0.0
 11
3.90033
 21
5.13374
 31
0.0
  0
LINE
  8
0
 62
     0
 10
3.90033
 20
5.13374
 30
0.0
 11
3.91228
 21
5.13374
 31
0.0
  0
LINE
  8
0
 62
     0
 10
3.91228
 20
5.13374
 30
0.0
 11
3.94819
 21
5.13857
 31
0.0
  0
LINE
  8
0
 62
     0
 10
3.94819
 20
5.13857
 30
0.0
 11
3.99278
 21
5.1524
 31
0.0
  0
LINE
  8
0
 62
     0
 10
3.99278
 20
5.1524
 30
0.0
 11
4.0331
 21
5.17432
 31
0.0
  0
LINE
  8
0
 62
     0
 10
4.0331
 20
5.17432
 30
0.0
 11
4.06022
 21
5.19532
 31
0.0
  0
LINE
  8
0
 62
     0
 10
4.06022
 20
5.19532
 30
0.0
 11
4.06825
 21
5.20329
 31
0.0
  0
LINE
  8
0
 62
     0
 10
4.06825
 20
5.20329
 30
0.0
 11
4.07622
 21
5.21132
 31
0.0
  0
LINE
  8
0
 62
     0
 10
4.07622
 20
5.21132
 30
0.0
 11
4.09722
 21
5.23844
 31
0.0
  0
LINE
  8
0
 62
     0
 10
4.09722
 20
5.23844
 30
0.0
 11
4.11914
 21
5.27875
 31
0.0
  0
LINE
  8
0
 62
     0
 10
4.11914
 20
5.27875
 30
0.0
 11
4.13297
 21
5.32335
 31
0.0
  0
LINE
  8
0
 62
     0
 10
4.13297
 20
5.32335
 30
0.0
 11
4.13781
 21
5.35926
 31
0.0
  0
LINE
  8
0
 62
     0
 10
4.13781
 20
5.35926
 30
0.0
 11
4.13781
 21
5.37121
 31
0.0
  0
LINE
  8
0
 62
     0
 10
4.13781
 20
5.37121
 30
0.0
 11
4.13781
 21
6.4484
 31
0.0
  0
LINE
  8
0
 62
     0
 10
4.13781
 20
6.4484
 30
0.0
 11
3.0606
 21
6.4484
 31
0.0
  0
LINE
  8
0
 62
     0
 10
3.0606
 20
6.4484
 30
0.0
 11
3.03749
 21
6.4484
 31
0.0
  0
LINE
  8
0
 62
     0
 10
3.03749
 20
6.4484
 30
0.0
 11
2.96815
 21
6.42974
 31
0.0
  0
LINE
  8
0
 62
     0
 10
2.96815
 20
6.42974
 30
0.0
 11
2.89268
 21
6.37885
 31
0.0
  0
LINE
  8
0
 62
     0
 10
2.89268
 20
6.37885
 30
0.0
 11
2.84179
 21
6.30339
 31
0.0
  0
LINE
  8
0
 62
     0
 10
2.84179
 20
6.30339
 30
0.0
 11
2.82314
 21
6.23406
 31
0.0
  0
LINE
  8
0
 62
     0
 10
2.82314
 20
6.23406
 30
0.0
 11
2.82314
 21
6.21094
 31
0.0
  0
LINE
  8
0
 62
     0
 10
5.713
 20
6.20296
 30
0.0
 11
5.713
 21
6.1799
 31
0.0
  0
LINE
  8
0
 62
     0
 10
5.713
 20
6.1799
 30
0.0
 11
5.69439
 21
6.11062
 31
0.0
  0
LINE
  8
0
 62
     0
 10
5.69439
 20
6.11062
 30
0.0
 11
5.6435
 21
6.0351
 31
0.0
  0
LINE
  8
0
 62
     0
 10
5.6435
 20
6.0351
 30
0.0
 11
5.56799
 21
5.98421
 31
0.0
  0
LINE
  8
0
 62
     0
 10
5.56799
 20
5.98421
 30
0.0
 11
5.49864
 21
5.9655
 31
0.0
  0
LINE
  8
0
 62
     0
 10
5.49864
 20
5.9655
 30
0.0
 11
5.47553
 21
5.9655
 31
0.0
  0
LINE
  8
0
 62
     0
 10
5.47553
 20
5.9655
 30
0.0
 11
5.20921
 21
5.9655
 31
0.0
  0
LINE
  8
0
 62
     0
 10
5.20921
 20
5.9655
 30
0.0
 11
5.81749
 21
5.35721
 31
0.0
  0
LINE
  8
0
 62
     0
 10
5.81749
 20
5.35721
 30
0.0
 11
5.83376
 21
5.34088
 31
0.0
  0
LINE
  8
0
 62
     0
 10
5.83376
 20
5.34088
 30
0.0
 11
5.86963
 21
5.27869
 31
0.0
  0
LINE
  8
0
 62
     0
 10
5.86963
 20
5.27869
 30
0.0
 11
5.88699
 21
5.18929
 31
0.0
  0
LINE
  8
0
 62
     0
 10
5.88699
 20
5.18929
 30
0.0
 11
5.86963
 21
5.09993
 31
0.0
  0
LINE
  8
0
 62
     0
 10
5.86963
 20
5.09993
 30
0.0
 11
5.83382
 21
5.03771
 31
0.0
  0
LINE
  8
0
 62
     0
 10
5.83382
 20
5.03771
 30
0.0
 11
5.81749
 21
5.02132
 31
0.0
  0
LINE
  8
0
 62
     0
 10
5.81749
 20
5.02132
 30
0.0
 11
5.80111
 21
5.00499
 31
0.0
  0
LINE
  8
0
 62
     0
 10
5.80111
 20
5.00499
 30
0.0
 11
5.73888
 21
4.96918
 31
0.0
  0
LINE
  8
0
 62
     0
 10
5.73888
 20
4.96918
 30
0.0
 11
5.64953
 21
4.95182
 31
0.0
  0
LINE
  8
0
 62
     0
 10
5.64953
 20
4.95182
 30
0.0
 11
5.56011
 21
4.96918
 31
0.0
  0
LINE
  8
0
 62
     0
 10
5.56011
 20
4.96918
 30
0.0
 11
5.49789
 21
5.00499
 31
0.0
  0
LINE
  8
0
 62
     0
 10
5.49789
 20
5.00499
 30
0.0
 11
5.48161
 21
5.02132
 31
0.0
  0
LINE
  8
0
 62
     0
 10
5.48161
 20
5.02132
 30
0.0
 11
4.87332
 21
5.62961
 31
0.0
  0
LINE
  8
0
 62
     0
 10
4.87332
 20
5.62961
 30
0.0
 11
4.87332
 21
5.36322
 31
0.0
  0
LINE
  8
0
 62
     0
 10
4.87332
 20
5.36322
 30
0.0
 11
4.87332
 21
5.34017
 31
0.0
  0
LINE
  8
0
 62
     0
 10
4.87332
 20
5.34017
 30
0.0
 11
4.85471
 21
5.27089
 31
0.0
  0
LINE
  8
0
 62
     0
 10
4.85471
 20
5.27089
 30
0.0
 11
4.80382
 21
5.19542
 31
0.0
  0
LINE
  8
0
 62
     0
 10
4.80382
 20
5.19542
 30
0.0
 11
4.72831
 21
5.14447
 31
0.0
  0
LINE
  8
0
 62
     0
 10
4.72831
 20
5.14447
 30
0.0
 11
4.65896
 21
5.12576
 31
0.0
  0
LINE
  8
0
 62
     0
 10
4.65896
 20
5.12576
 30
0.0
 11
4.63585
 21
5.12576
 31
0.0
  0
LINE
  8
0
 62
     0
 10
4.63585
 20
5.12576
 30
0.0
 11
4.62386
 21
5.12576
 31
0.0
  0
LINE
  8
0
 62
     0
 10
4.62386
 20
5.12576
 30
0.0
 11
4.58789
 21
5.13058
 31
0.0
  0
LINE
  8
0
 62
     0
 10
4.58789
 20
5.13058
 30
0.0
 11
4.54335
 21
5.14442
 31
0.0
  0
LINE
  8
0
 62
     0
 10
4.54335
 20
5.14442
 30
0.0
 11
4.50304
 21
5.16635
 31
0.0
  0
LINE
  8
0
 62
     0
 10
4.50304
 20
5.16635
 30
0.0
 11
4.47586
 21
5.18733
 31
0.0
  0
LINE
  8
0
 62
     0
 10
4.47586
 20
5.18733
 30
0.0
 11
4.46789
 21
5.19532
 31
0.0
  0
LINE
  8
0
 62
     0
 10
4.46789
 20
5.19532
 30
0.0
 11
4.45985
 21
5.20335
 31
0.0
  0
LINE
  8
0
 62
     0
 10
4.45985
 20
5.20335
 30
0.0
 11
4.43886
 21
5.23047
 31
0.0
  0
LINE
  8
0
 62
     0
 10
4.43886
 20
5.23047
 30
0.0
 11
4.41699
 21
5.27078
 31
0.0
  0
LINE
  8
0
 62
     0
 10
4.41699
 20
5.27078
 30
0.0
 11
4.40315
 21
5.31538
 31
0.0
  0
LINE
  8
0
 62
     0
 10
4.40315
 20
5.31538
 30
0.0
 11
4.39839
 21
5.35129
 31
0.0
  0
LINE
  8
0
 62
     0
 10
4.39839
 20
5.35129
 30
0.0
 11
4.39839
 21
5.36322
 31
0.0
  0
LINE
  8
0
 62
     0
 10
4.39839
 20
5.36322
 30
0.0
 11
4.39839
 21
6.44043
 31
0.0
  0
LINE
  8
0
 62
     0
 10
4.39839
 20
6.44043
 30
0.0
 11
5.47553
 21
6.44043
 31
0.0
  0
LINE
  8
0
 62
     0
 10
5.47553
 20
6.44043
 30
0.0
 11
5.49864
 21
6.44043
 31
0.0
  0
LINE
  8
0
 62
     0
 10
5.49864
 20
6.44043
 30
0.0
 11
5.56799
 21
6.42176
 31
0.0
  0
LINE
  8
0
 62
     0
 10
5.56799
 20
6.42176
 30
0.0
 11
5.64344
 21
6.37088
 31
0.0
  0
LINE
  8
0
 62
     0
 10
5.64344
 20
6.37088
 30
0.0
 11
5.69433
 21
6.29542
 31
0.0
  0
LINE
  8
0
 62
     0
 10
5.69433
 20
6.29542
 30
0.0
 11
5.713
 21
6.22607
 31
0.0
  0
LINE
  8
0
 62
     0
 10
5.713
 20
6.22607
 30
0.0
 11
5.713
 21
6.20296
 31
0.0
  0
LINE
  8
0
 62
     0
 10
4.48247
 20
7.84446
 30
0.0
 11
4.48242
 21
7.8214
 31
0.0
  0
LINE
  8
0
 62
     0
 10
4.48242
 20
7.8214
 30
0.0
 11
4.50103
 21
7.75211
 31
0.0
  0
LINE
  8
0
 62
     0
 10
4.50103
 20
7.75211
 30
0.0
 11
4.55192
 21
7.67665
 31
0.0
  0
LINE
  8
0
 62
     0
 10
4.55192
 20
7.67665
 30
0.0
 11
4.62744
 21
7.62571
 31
0.0
  0
LINE
  8
0
 62
     0
 10
4.62744
 20
7.62571
 30
0.0
 11
4.69678
 21
7.60699
 31
0.0
  0
LINE
  8
0
 62
     0
 10
4.69678
 20
7.60699
 30
0.0
 11
4.71994
 21
7.60699
 31
0.0
  0
LINE
  8
0
 62
     0
 10
4.71994
 20
7.60699
 30
0.0
 11
4.98628
 21
7.60699
 31
0.0
  0
LINE
  8
0
 62
     0
 10
4.98628
 20
7.60699
 30
0.0
 11
4.37804
 21
6.99869
 31
0.0
  0
LINE
  8
0
 62
     0
 10
4.37804
 20
6.99869
 30
0.0
 11
4.36171
 21
6.98236
 31
0.0
  0
LINE
  8
0
 62
     0
 10
4.36171
 20
6.98236
 30
0.0
 11
4.32585
 21
6.92019
 31
0.0
  0
LINE
  8
0
 62
     0
 10
4.32585
 20
6.92019
 30
0.0
 11
4.30843
 21
6.83083
 31
0.0
  0
LINE
  8
0
 62
     0
 10
4.30843
 20
6.83083
 30
0.0
 11
4.32579
 21
6.74143
 31
0.0
  0
LINE
  8
0
 62
     0
 10
4.32579
 20
6.74143
 30
0.0
 11
4.36165
 21
6.67919
 31
0.0
  0
LINE
  8
0
 62
     0
 10
4.36165
 20
6.67919
 30
0.0
 11
4.37804
 21
6.66282
 31
0.0
  0
LINE
  8
0
 62
     0
 10
4.37804
 20
6.66282
 30
0.0
 11
4.39432
 21
6.64654
 31
0.0
  0
LINE
  8
0
 62
     0
 10
4.39432
 20
6.64654
 30
0.0
 11
4.45654
 21
6.61074
 31
0.0
  0
LINE
  8
0
 62
     0
 10
4.45654
 20
6.61074
 30
0.0
 11
4.54596
 21
6.59332
 31
0.0
  0
LINE
  8
0
 62
     0
 10
4.54596
 20
6.59332
 30
0.0
 11
4.63531
 21
6.61074
 31
0.0
  0
LINE
  8
0
 62
     0
 10
4.63531
 20
6.61074
 30
0.0
 11
4.6976
 21
6.64649
 31
0.0
  0
LINE
  8
0
 62
     0
 10
4.6976
 20
6.64649
 30
0.0
 11
4.71392
 21
6.66282
 31
0.0
  0
LINE
  8
0
 62
     0
 10
4.71392
 20
6.66282
 30
0.0
 11
5.32215
 21
7.27111
 31
0.0
  0
LINE
  8
0
 62
     0
 10
5.32215
 20
7.27111
 30
0.0
 11
5.32215
 21
7.00478
 31
0.0
  0
LINE
  8
0
 62
     0
 10
5.32215
 20
7.00478
 30
0.0
 11
5.3221
 21
6.98172
 31
0.0
  0
LINE
  8
0
 62
     0
 10
5.3221
 20
6.98172
 30
0.0
 11
5.34071
 21
6.91243
 31
0.0
  0
LINE
  8
0
 62
     0
 10
5.34071
 20
6.91243
 30
0.0
 11
5.39165
 21
6.83692
 31
0.0
  0
LINE
  8
0
 62
     0
 10
5.39165
 20
6.83692
 30
0.0
 11
5.46718
 21
6.78603
 31
0.0
  0
LINE
  8
0
 62
     0
 10
5.46718
 20
6.78603
 30
0.0
 11
5.53651
 21
6.76731
 31
0.0
  0
LINE
  8
0
 62
     0
 10
5.53651
 20
6.76731
 30
0.0
 11
5.55968
 21
6.76731
 31
0.0
  0
LINE
  8
0
 62
     0
 10
5.55968
 20
6.76731
 30
0.0
 11
5.57161
 21
6.76731
 31
0.0
  0
LINE
  8
0
 62
     0
 10
5.57161
 20
6.76731
 30
0.0
 11
5.60753
 21
6.77214
 31
0.0
  0
LINE
  8
0
 62
     0
 10
5.60753
 20
6.77214
 30
0.0
 11
5.65213
 21
6.78597
 31
0.0
  0
LINE
  8
0
 62
     0
 10
5.65213
 20
6.78597
 30
0.0
 11
5.69243
 21
6.80783
 31
0.0
  0
LINE
  8
0
 62
     0
 10
5.69243
 20
6.80783
 30
0.0
 11
5.71957
 21
6.82883
 31
0.0
  0
LINE
  8
0
 62
     0
 10
5.71957
 20
6.82883
 30
0.0
 11
5.7276
 21
6.83681
 31
0.0
  0
LINE
  8
0
 62
     0
 10
5.7276
 20
6.83681
 30
0.0
 11
5.73557
 21
6.84483
 31
0.0
  0
LINE
  8
0
 62
     0
 10
5.73557
 20
6.84483
 30
0.0
 11
5.75657
 21
6.87201
 31
0.0
  0
LINE
  8
0
 62
     0
 10
5.75657
 20
6.87201
 30
0.0
 11
5.77849
 21
6.91233
 31
0.0
  0
LINE
  8
0
 62
     0
 10
5.77849
 20
6.91233
 30
0.0
 11
5.79232
 21
6.95692
 31
0.0
  0
LINE
  8
0
 62
     0
 10
5.79232
 20
6.95692
 30
0.0
 11
5.79715
 21
6.99283
 31
0.0
  0
LINE
  8
0
 62
     0
 10
5.79715
 20
6.99283
 30
0.0
 11
5.79715
 21
7.00478
 31
0.0
  0
LINE
  8
0
 62
     0
 10
5.79715
 20
7.00478
 30
0.0
 11
5.79715
 21
8.08192
 31
0.0
  0
LINE
  8
0
 62
     0
 10
5.79715
 20
8.08192
 30
0.0
 11
4.71994
 21
8.08192
 31
0.0
  0
LINE
  8
0
 62
     0
 10
4.71994
 20
8.08192
 30
0.0
 11
4.69683
 21
8.08192
 31
0.0
  0
LINE
  8
0
 62
     0
 10
4.69683
 20
8.08192
 30
0.0
 11
4.6275
 21
8.06332
 31
0.0
  0
LINE
  8
0
 62
     0
 10
4.6275
 20
8.06332
 30
0.0
 11
4.55197
 21
8.01243
 31
0.0
  0
LINE
  8
0
 62
     0
 10
4.55197
 20
8.01243
 30
0.0
 11
4.50108
 21
7.9369
 31
0.0
  0
LINE
  8
0
 62
     0
 10
4.50108
 20
7.9369
 30
0.0
 11
4.48247
 21
7.86757
 31
0.0
  0
LINE
  8
0
 62
     0
 10
4.48247
 20
7.86757
 30
0.0
 11
4.48247
 21
7.84446
 31
0.0
  0
LINE
  8
0
 62
     0
 10
2.83979
 20
6.91276
 30
0.0
 11
2.83974
 21
6.93587
 31
0.0
  0
LINE
  8
0
 62
     0
 10
2.83974
 20
6.93587
 30
0.0
 11
2.85835
 21
7.00515
 31
0.0
  0
LINE
  8
0
 62
     0
 10
2.85835
 20
7.00515
 30
0.0
 11
2.90929
 21
7.08062
 31
0.0
  0
LINE
  8
0
 62
     0
 10
2.90929
 20
7.08062
 30
0.0
 11
2.98481
 21
7.13157
 31
0.0
  0
LINE
  8
0
 62
     0
 10
2.98481
 20
7.13157
 30
0.0
 11
3.05414
 21
7.15022
 31
0.0
  0
LINE
  8
0
 62
     0
 10
3.05414
 20
7.15022
 30
0.0
 11
3.07731
 21
7.15022
 31
0.0
  0
LINE
  8
0
 62
     0
 10
3.07731
 20
7.15022
 30
0.0
 11
3.34364
 21
7.15022
 31
0.0
  0
LINE
  8
0
 62
     0
 10
3.34364
 20
7.15022
 30
0.0
 11
2.73535
 21
7.75851
 31
0.0
  0
LINE
  8
0
 62
     0
 10
2.73535
 20
7.75851
 30
0.0
 11
2.71897
 21
7.77485
 31
0.0
  0
LINE
  8
0
 62
     0
 10
2.71897
 20
7.77485
 30
0.0
 11
2.68317
 21
7.83708
 31
0.0
  0
LINE
  8
0
 62
     0
 10
2.68317
 20
7.83708
 30
0.0
 11
2.66575
 21
7.92643
 31
0.0
  0
LINE
  8
0
 62
     0
 10
2.66575
 20
7.92643
 30
0.0
 11
2.68317
 21
8.01585
 31
0.0
  0
LINE
  8
0
 62
     0
 10
2.68317
 20
8.01585
 30
0.0
 11
2.71897
 21
8.07807
 31
0.0
  0
LINE
  8
0
 62
     0
 10
2.71897
 20
8.07807
 30
0.0
 11
2.73535
 21
8.0944
 31
0.0
  0
LINE
  8
0
 62
     0
 10
2.73535
 20
8.0944
 30
0.0
 11
2.75168
 21
8.11079
 31
0.0
  0
LINE
  8
0
 62
     0
 10
2.75168
 20
8.11079
 30
0.0
 11
2.81392
 21
8.1466
 31
0.0
  0
LINE
  8
0
 62
     0
 10
2.81392
 20
8.1466
 30
0.0
 11
2.90326
 21
8.16396
 31
0.0
  0
LINE
  8
0
 62
     0
 10
2.90326
 20
8.16396
 30
0.0
 11
2.99268
 21
8.1466
 31
0.0
  0
LINE
  8
0
 62
     0
 10
2.99268
 20
8.1466
 30
0.0
 11
3.05485
 21
8.11079
 31
0.0
  0
LINE
  8
0
 62
     0
 10
3.05485
 20
8.11079
 30
0.0
 11
3.07124
 21
8.0944
 31
0.0
  0
LINE
  8
0
 62
     0
 10
3.07124
 20
8.0944
 30
0.0
 11
3.67953
 21
7.48611
 31
0.0
  0
LINE
  8
0
 62
     0
 10
3.67953
 20
7.48611
 30
0.0
 11
3.67953
 21
7.75244
 31
0.0
  0
LINE
  8
0
 62
     0
 10
3.67953
 20
7.75244
 30
0.0
 11
3.67947
 21
7.77556
 31
0.0
  0
LINE
  8
0
 62
     0
 10
3.67947
 20
7.77556
 30
0.0
 11
3.69808
 21
7.84483
 31
0.0
  0
LINE
  8
0
 62
     0
 10
3.69808
 20
7.84483
 30
0.0
 11
3.74897
 21
7.92036
 31
0.0
  0
LINE
  8
0
 62
     0
 10
3.74897
 20
7.92036
 30
0.0
 11
3.82449
 21
7.97125
 31
0.0
  0
LINE
  8
0
 62
     0
 10
3.82449
 20
7.97125
 30
0.0
 11
3.89382
 21
7.9899
 31
0.0
  0
LINE
  8
0
 62
     0
 10
3.89382
 20
7.9899
 30
0.0
 11
3.91699
 21
7.9899
 31
0.0
  0
LINE
  8
0
 62
     0
 10
3.91699
 20
7.9899
 30
0.0
 11
3.92893
 21
7.9899
 31
0.0
  0
LINE
  8
0
 62
     0
 10
3.92893
 20
7.9899
 30
0.0
 11
3.96485
 21
7.98514
 31
0.0
  0
LINE
  8
0
 62
     0
 10
3.96485
 20
7.98514
 30
0.0
 11
4.00944
 21
7.97131
 31
0.0
  0
LINE
  8
0
 62
     0
 10
4.00944
 20
7.97131
 30
0.0
 11
4.04975
 21
7.94943
 31
0.0
  0
LINE
  8
0
 62
     0
 10
4.04975
 20
7.94943
 30
0.0
 11
4.07693
 21
7.92844
 31
0.0
  0
LINE
  8
0
 62
     0
 10
4.07693
 20
7.92844
 30
0.0
 11
4.08496
 21
7.92042
 31
0.0
  0
LINE
  8
0
 62
     0
 10
4.08496
 20
7.92042
 30
0.0
 11
4.09293
 21
7.91243
 31
0.0
  0
LINE
  8
0
 62
     0
 10
4.09293
 20
7.91243
 30
0.0
 11
4.11393
 21
7.88525
 31
0.0
  0
LINE
  8
0
 62
     0
 10
4.11393
 20
7.88525
 30
0.0
 11
4.13579
 21
7.84494
 31
0.0
  0
LINE
  8
0
 62
     0
 10
4.13579
 20
7.84494
 30
0.0
 11
4.14963
 21
7.8004
 31
0.0
  0
LINE
  8
0
 62
     0
 10
4.14963
 20
7.8004
 30
0.0
 11
4.15446
 21
7.76443
 31
0.0
  0
LINE
  8
0
 62
     0
 10
4.15446
 20
7.76443
 30
0.0
 11
4.15446
 21
7.75244
 31
0.0
  0
LINE
  8
0
 62
     0
 10
4.15446
 20
7.75244
 30
0.0
 11
4.15446
 21
6.67529
 31
0.0
  0
LINE
  8
0
 62
     0
 10
4.15446
 20
6.67529
 30
0.0
 11
3.07731
 21
6.67529
 31
0.0
  0
LINE
  8
0
 62
     0
 10
3.07731
 20
6.67529
 30
0.0
 11
3.05414
 21
6.67529
 31
0.0
  0
LINE
  8
0
 62
     0
 10
3.05414
 20
6.67529
 30
0.0
 11
2.98481
 21
6.69396
 31
0.0
  0
LINE
  8
0
 62
     0
 10
2.98481
 20
6.69396
 30
0.0
 11
2.90935
 21
6.74485
 31
0.0
  0
LINE
  8
0
 62
     0
 10
2.90935
 20
6.74485
 30
0.0
 11
2.85846
 21
6.82032
 31
0.0
  0
LINE
  8
0
 62
     0
 10
2.85846
 20
6.82032
 30
0.0
 11
2.83979
 21
6.88965
 31
0.0
  0
LINE
  8
0
 62
     0
 10
2.83979
 20
6.88965
 30
0.0
 11
2.83979
 21
6.91276
 31
0.0
  0
ENDSEC
  0
EOF
