<?xml version="1.0" encoding="utf-8"?>
<!-- Generator: Adobe Illustrator 18.0.0, SVG Export Plug-In . SVG Version: 6.00 Build 0)  -->
<!DOCTYPE svg PUBLIC "-//W3C//DTD SVG 1.1//EN" "http://www.w3.org/Graphics/SVG/1.1/DTD/svg11.dtd">
<svg version="1.1" id="Layer_1" xmlns="http://www.w3.org/2000/svg" xmlns:xlink="http://www.w3.org/1999/xlink" x="0px" y="0px"
	 viewBox="0 0 293.2 205.1" enable-background="new 0 0 293.2 205.1" xml:space="preserve">
<g>
	<g>
		<path fill="#A2A2A2" d="M209.6,172.2c-8.5,0-15.3-6.9-15.3-15.3c0-27.2-10.6-52.8-29.9-72.1c-19.3-19.3-44.9-29.9-72.1-29.9
			c-8.5,0-15.3-6.9-15.3-15.3c0-8.5,6.9-15.3,15.3-15.3c35.4,0,68.7,13.8,93.8,38.8c25.1,25,38.8,58.4,38.8,93.8
			C224.9,165.3,218,172.2,209.6,172.2z M92.3,30.3c-5.1,0-9.3,4.2-9.3,9.3c0,5.1,4.2,9.3,9.3,9.3c28.9,0,56,11.2,76.4,31.6
			c20.4,20.4,31.6,47.5,31.6,76.4c0,5.1,4.2,9.3,9.3,9.3c5.1,0,9.3-4.2,9.3-9.3c0-33.8-13.2-65.6-37.1-89.5
			C157.9,43.5,126.1,30.3,92.3,30.3z"/>
	</g>
	<g>
		<path fill="#A2A2A2" d="M154,172.2c-8.5,0-15.3-6.9-15.3-15.3c0-25.6-20.8-46.4-46.4-46.4c-8.5,0-15.3-6.9-15.3-15.3
			s6.9-15.3,15.3-15.3c42.5,0,77.1,34.6,77.1,77.1C169.4,165.3,162.5,172.2,154,172.2z M92.3,85.9c-5.1,0-9.3,4.2-9.3,9.3
			c0,5.1,4.2,9.3,9.3,9.3c28.9,0,52.5,23.5,52.5,52.5c0,5.1,4.2,9.3,9.3,9.3c5.1,0,9.3-4.2,9.3-9.3
			C163.3,117.7,131.4,85.9,92.3,85.9z"/>
	</g>
	<g>
		<path fill="#A2A2A2" d="M92.3,180.9c-6.4,0-12.4-2.5-17-7c-4.5-4.5-7-10.5-7-17c0-6.4,2.5-12.4,7-17c4.5-4.5,10.5-7,17-7
			c6.4,0,12.4,2.5,17,7c4.5,4.5,7,10.5,7,17c0,6.4-2.5,12.4-7,17C104.7,178.4,98.7,180.9,92.3,180.9z M92.3,139
			c-4.8,0-9.3,1.9-12.7,5.2c-3.4,3.4-5.2,7.9-5.2,12.7c0,4.8,1.9,9.3,5.2,12.7c3.4,3.4,7.9,5.2,12.7,5.2c4.8,0,9.3-1.9,12.7-5.2
			s5.2-7.9,5.2-12.7c0-4.8-1.9-9.3-5.2-12.7C101.6,140.9,97.1,139,92.3,139z"/>
	</g>
</g>
</svg>
